<?xml version="1.0" standalone="no"?>
<!DOCTYPE svg PUBLIC "-//W3C//DTD SVG 20010904//EN"
 "http://www.w3.org/TR/2001/REC-SVG-20010904/DTD/svg10.dtd">
<svg version="1.0" xmlns="http://www.w3.org/2000/svg"
 width="246.000000pt" height="246.000000pt" viewBox="0 0 246.000000 246.000000"
 preserveAspectRatio="xMidYMid meet">
<metadata>
Created by potrace 1.14, written by Peter Selinger 2001-2017
</metadata>
<g transform="translate(0.000000,246.000000) scale(0.100000,-0.100000)"
fill="#000000" stroke="none">
<path d="M1104 1993 c-60 -87 -110 -160 -112 -164 -2 -4 6 -9 17 -11 17 -3 3
-31 -106 -218 -68 -118 -135 -233 -147 -255 -13 -22 -85 -145 -160 -273 -75
-129 -136 -238 -136 -242 0 -5 12 -10 28 -12 l27 -4 -25 -11 c-51 -22 -94 -89
-153 -239 -40 -102 -50 -156 -33 -180 12 -15 14 -15 38 0 14 9 37 39 52 66 15
28 29 50 30 50 2 0 0 -17 -4 -38 -9 -52 -9 -55 1 -74 14 -26 36 -12 75 46 36
54 44 51 19 -7 -10 -24 -11 -38 -4 -42 19 -12 36 15 65 105 15 49 32 90 36 90
4 0 1 -19 -7 -43 -53 -164 -52 -157 -29 -157 18 0 36 39 59 130 9 36 21 70 27
75 13 12 6 -18 -24 -120 -12 -38 -21 -75 -20 -81 1 -6 -32 -21 -73 -34 -42
-13 -81 -30 -88 -38 -10 -13 -8 -14 10 -8 12 4 58 8 102 10 79 3 80 2 75 -20
-8 -32 27 -40 84 -19 26 10 52 22 59 27 14 11 193 16 199 6 3 -4 15 -4 27 0
12 5 50 7 83 6 58 -2 63 0 93 32 32 33 55 42 65 26 2 -4 1 -14 -4 -22 -22 -36
43 -58 71 -24 12 14 14 14 25 -1 7 -9 23 -16 36 -15 12 0 37 0 55 0 31 0 32 1
21 31 -15 45 -3 47 35 5 32 -34 67 -48 67 -26 0 7 7 7 21 0 11 -7 31 -9 42 -7
12 3 31 2 42 -3 11 -4 27 -4 36 1 8 4 32 4 52 -1 23 -5 39 -4 43 2 4 5 18 6
33 2 14 -3 40 -6 58 -5 17 1 57 -10 88 -24 45 -21 59 -24 71 -14 8 6 14 18 14
25 0 14 6 15 165 16 l70 0 -35 16 c-20 9 -72 18 -121 20 l-86 4 -17 75 c-17
70 -20 75 -42 70 -20 -4 -27 1 -38 28 -8 17 -26 41 -42 53 -27 20 -28 21 -7
22 33 0 37 17 14 54 -33 54 -56 54 -75 1 -7 -19 -8 -19 -28 8 -11 15 -28 27
-39 27 -19 0 -23 -12 -22 -67 0 -35 -10 -27 -30 22 -13 31 -25 45 -38 45 -25
0 -36 -30 -34 -92 2 -63 -11 -49 -18 19 -7 67 -10 71 -49 69 l-33 -2 3 -58 c2
-39 0 -56 -7 -51 -6 3 -11 19 -11 35 0 48 -16 79 -42 78 -66 -1 -68 -3 -64
-71 6 -84 -9 -106 -17 -27 -8 69 -21 100 -43 100 -19 0 -44 -59 -44 -105 0
-22 -4 -34 -10 -30 -5 3 -10 17 -10 29 0 13 -11 40 -25 60 -27 39 -31 56 -15
56 6 0 10 -7 10 -15 0 -18 26 -20 33 -2 3 7 1 32 -4 55 -5 23 -13 61 -18 85
-5 23 -10 121 -11 217 -2 296 -11 745 -16 749 -2 2 -15 -1 -29 -7 -21 -10 -25
-9 -25 3 0 8 -7 15 -15 15 -8 0 -15 -5 -15 -10 0 -6 -10 -8 -23 -5 -14 4 -28
1 -34 -7 -6 -7 -46 -121 -88 -253 -42 -132 -104 -322 -136 -422 l-60 -182 -95
-31 c-53 -18 -98 -30 -101 -27 -3 3 10 36 27 74 18 37 45 95 60 128 55 121 72
158 138 297 38 79 102 214 142 301 43 90 79 156 86 153 22 -9 34 12 78 134 58
163 57 160 68 160 8 0 6 -124 -3 -188 -3 -20 3 -32 16 -32 13 0 15 20 15 124
0 120 -1 124 -22 130 -13 3 -26 6 -29 6 -3 0 -55 -71 -115 -157z m112 -310
c-5 -37 -8 -60 -22 -208 -3 -38 -8 -81 -9 -95 -2 -14 -11 -101 -19 -194 -9
-94 -18 -170 -19 -171 -24 -10 -150 -46 -153 -43 -5 5 60 291 92 403 29 101
47 137 68 129 10 -4 18 18 31 93 20 115 22 123 31 123 3 0 3 -17 0 -37z m-141
-733 c-6 -10 -78 -50 -90 -50 -3 0 -5 6 -5 14 0 8 17 21 38 29 43 19 66 21 57
7z m62 -68 c-7 -65 7 -82 67 -82 25 0 46 -2 46 -4 0 -3 -5 -17 -11 -33 -6 -15
-12 -54 -15 -85 -3 -48 1 -65 26 -114 18 -34 28 -64 24 -76 -8 -25 -24 -13
-24 18 0 19 -5 25 -17 22 -15 -3 -18 -14 -17 -66 l1 -62 -31 0 c-55 1 -66 18
-60 91 3 35 14 82 24 104 10 22 20 51 22 65 3 21 -1 25 -26 25 -35 1 -44 -17
-45 -99 -1 -58 -12 -37 -14 28 -3 86 -43 103 -73 31 -8 -19 -16 -35 -18 -35
-2 0 -3 41 -2 90 2 88 1 90 -16 68 -10 -13 -18 -35 -18 -49 0 -30 -24 -57 -35
-39 -9 15 -35 -7 -35 -28 0 -34 -34 -172 -42 -172 -10 0 -4 44 18 134 15 60 6
98 -13 60 -8 -17 -43 -159 -58 -236 -3 -16 -10 -28 -16 -28 -7 0 -9 9 -5 23
21 68 35 139 38 191 3 58 3 59 -25 60 -15 1 -32 -3 -36 -9 -4 -5 -22 -66 -40
-135 -33 -129 -48 -176 -56 -168 -3 2 6 42 19 89 31 104 52 217 43 226 -4 3
-16 -2 -27 -12 -16 -14 -20 -15 -20 -4 0 10 -11 15 -34 15 -33 0 -34 -1 -61
-83 -15 -46 -30 -83 -32 -83 -3 0 -2 12 2 28 14 48 23 116 18 129 -15 38 -74
-24 -108 -113 -16 -43 -19 -46 -31 -29 -8 10 -15 17 -16 14 -2 -2 -11 -17 -20
-34 -31 -56 -51 -41 -24 18 8 18 19 48 25 67 23 73 75 133 63 74 -4 -24 -3
-25 16 -13 19 12 42 80 42 124 0 12 15 15 65 15 51 0 84 7 152 35 48 19 88 35
90 35 2 0 1 -11 -3 -25 -5 -21 -3 -25 16 -25 11 0 18 -4 15 -10 -4 -6 18 -10
58 -10 65 0 65 0 147 65 45 36 84 65 87 65 3 0 3 -21 0 -48z m-214 -347 c-7
-33 -13 -77 -13 -98 0 -26 -4 -37 -12 -34 -16 5 -16 1 7 132 13 74 21 102 25
85 3 -13 0 -51 -7 -85z m686 -27 c1 -63 -2 -98 -8 -98 -7 0 -11 42 -10 118 1
138 14 123 18 -20z m-93 45 c5 -38 9 -75 9 -83 0 -8 4 -20 8 -26 4 -8 -4 -13
-23 -16 -29 -4 -30 -3 -31 36 -1 23 -2 58 -3 79 -1 21 2 41 6 43 4 3 8 14 8
25 0 45 18 4 26 -58z m-466 32 c0 -14 -4 -25 -10 -25 -11 0 -14 33 -3 43 11
11 13 8 13 -18z m333 -18 c-9 -16 -26 12 -18 30 7 17 8 17 15 -2 4 -11 5 -24
3 -28z m-883 -41 c-12 -31 -26 -56 -31 -56 -12 0 -5 27 23 90 28 62 34 36 8
-34z m485 22 c-6 -29 -10 -74 -8 -100 2 -29 0 -48 -7 -48 -17 0 -16 132 1 177
16 43 26 23 14 -29z m750 31 c12 21 22 11 23 -24 1 -20 4 -40 7 -45 4 -6 -3
-10 -14 -10 -11 0 -24 -7 -29 -16 -13 -23 -19 -9 -27 61 -8 60 -8 60 13 42 13
-12 22 -15 27 -8z m-955 9 c-7 -40 -30 -103 -38 -106 -11 -3 -8 16 10 76 5 17
14 32 19 32 5 0 9 -1 9 -2z m1112 -112 c-29 -10 -35 -5 -27 27 l7 25 21 -22
22 -21 -23 -9z m-456 2 c2 -13 -5 -15 -35 -11 -43 7 -45 8 -36 23 10 17 68 7
71 -12z m411 6 c-3 -3 -12 -4 -19 -1 -8 3 -5 6 6 6 11 1 17 -2 13 -5z m-517
-34 c0 -16 -4 -30 -10 -30 -11 0 -14 43 -3 53 11 12 13 8 13 -23z m337 18 c0
-7 3 -24 7 -37 5 -15 4 -21 -2 -17 -11 7 -22 53 -14 61 8 7 9 6 9 -7z m119
-25 c3 -16 7 -33 9 -39 2 -6 18 -18 37 -27 39 -20 15 -23 -44 -7 -33 10 -36
13 -29 33 5 12 7 32 5 45 -5 32 14 27 22 -5z m204 10 c0 -10 3 -28 6 -40 4
-16 2 -23 -7 -23 -9 0 -15 14 -16 40 -2 22 2 40 7 40 6 0 10 -8 10 -17z m-553
-23 c-3 -21 -17 -40 -17 -22 0 13 11 42 16 42 2 0 3 -9 1 -20z m-366 -23 c-8
-8 -11 -7 -11 4 0 20 13 34 18 19 3 -7 -1 -17 -7 -23z m822 18 c4 -8 2 -17 -3
-20 -6 -4 -10 3 -10 14 0 25 6 27 13 6z m-1173 -125 c-20 -13 -33 -13 -25 0 3
6 14 10 23 10 15 0 15 -2 2 -10z"/>
<path d="M1322 2128 c4 -8 36 -64 72 -123 36 -59 66 -109 66 -111 0 -3 11 -22
25 -44 30 -48 30 -46 5 -53 -19 -5 -19 -5 1 -78 66 -243 216 -604 308 -744 22
-33 38 -61 36 -63 -6 -6 -95 21 -104 32 -5 6 -52 130 -104 276 -155 433 -218
572 -264 587 -7 3 -19 -8 -29 -22 -14 -21 -17 -51 -18 -152 l-1 -125 35 -19
35 -19 5 52 c7 70 29 71 52 3 22 -64 16 -90 -34 -142 -59 -60 -76 -120 -73
-254 2 -108 2 -109 -22 -109 -26 0 -31 -21 -8 -44 8 -8 15 -30 15 -50 0 -69
88 -136 179 -136 40 0 53 4 66 22 14 20 17 21 37 9 12 -7 49 -17 82 -21 53 -6
64 -5 79 11 22 23 41 24 98 3 24 -9 64 -19 88 -22 40 -6 45 -11 59 -47 16 -45
64 -198 90 -289 16 -54 42 -89 57 -74 4 3 2 23 -4 44 -13 46 -9 54 8 16 8 -15
17 -34 20 -41 8 -15 91 -24 91 -10 0 4 -9 36 -20 70 -10 35 -18 65 -16 67 2 2
9 -12 15 -31 19 -56 70 -119 95 -115 18 3 21 8 17 43 -3 44 -17 75 -31 75 -6
0 -10 -9 -10 -20 0 -34 -18 -22 -39 24 -34 79 -36 89 -12 81 33 -10 43 3 26
33 -49 90 -109 97 -84 10 19 -67 8 -71 -24 -8 -32 65 -32 65 -74 64 -36 -1
-43 3 -52 25 -21 58 -31 94 -26 101 3 4 24 4 47 -2 29 -6 55 -6 78 1 19 6 44
12 55 14 11 2 19 8 18 13 -2 10 -164 245 -403 584 -64 91 -157 224 -206 295
-50 72 -111 159 -136 195 -24 36 -69 100 -98 143 -52 76 -80 106 -68 75z m355
-625 c112 -141 231 -373 191 -373 -37 0 -79 63 -170 255 -44 93 -57 135 -42
135 4 0 13 -8 21 -17z m-148 -327 c15 -83 14 -132 -5 -150 -24 -24 -33 -20
-54 27 -28 61 -26 124 6 171 31 45 37 40 53 -48z m676 -688 c25 -78 28 -110 7
-71 -13 24 -52 139 -52 153 0 31 22 -10 45 -82z"/>
<path d="M1587 802 c-4 -6 -3 -38 2 -74 1 -5 10 -8 22 -8 15 0 19 4 15 16 -3
9 -6 26 -6 39 0 22 -25 42 -33 27z"/>
<path d="M1730 740 c0 -5 10 -10 23 -10 18 0 19 2 7 10 -19 13 -30 13 -30 0z"/>
<path d="M2373 502 c-8 -5 -5 -22 12 -62 23 -54 38 -70 49 -52 5 8 -40 122
-47 122 -1 0 -7 -4 -14 -8z"/>
</g>
</svg>
